<svg xmlns="http://www.w3.org/2000/svg" width="1920" height="1000"><defs><linearGradient id="A" x1=".557" y1=".38" x2=".842" y2=".38"><stop offset="0" stop-color="#ffd148"/><stop offset=".1" stop-color="#ffd148"/><stop offset=".2" stop-color="#f8d147"/><stop offset=".3" stop-color="#edd147"/><stop offset=".4" stop-color="#e3d146"/><stop offset=".596" stop-color="#d8d046"/><stop offset="1" stop-color="#a2cf44"/></linearGradient><clipPath id="B"><path d="M0 0h1920v1000H0z"/></clipPath></defs><g clip-path="url(#B)"><path fill="#fff" d="M0 0h1920v1000H0z"/><path d="M-800.5,1924.338-580.639-444l1552.2,620.027L549.436,2401.012Z" fill="url(#A)" transform="matrix(.189 .982 -.982 .189 2011.197 76.05)"/><path d="M1392.67 805.85l749.936 95.63 40.53-330.08z" fill="#fff"/><path d="M2197.846 451.56l-474.57 137.294 450.643 57.568z" fill="#a2cf44"/><path d="M457.983 554.907L-54.445 775.28-150.33 549.42z" fill="#0b3967"/><path d="M322.43 511.254L-20.735 658.83-84.95 507.576zm818.173-344.274l502.464-297.85-169.396-281.922zm446.237 45.277l412.338-164.73-61.15-151.35z" fill="#fff"/><path d="M1326.315 94.524l389.19-213.754-79.14-142.77z" fill="#0b3967"/></g></svg>